<svg version="1.0" xmlns="http://www.w3.org/2000/svg" width="300.000000pt" height="300.000000pt" viewBox="0 0 300.000000 300.000000" preserveAspectRatio="xMidYMid meet">
<metadata>
Created by potrace 1.10, written by Peter Selinger 2001-2011
</metadata>
<g transform="translate(0.000000,300.000000) scale(0.100000,-0.100000)" fill="#000000" stroke="none">
<path d="M2226 2700 c49 -11 90 -46 108 -90 20 -50 20 -66 2 -118 l-15 -40 42 -29 c62 -42 67 -45 67 -36 0 4 -21 21 -46 37 -33 21 -43 33 -38 45 4 9 9 39 12 68 4 43 0 59 -21 96 -27 46 -76 78 -119 76 -18 -1 -17 -2 8 -9z"/>
<path d="M2126 2625 c-55 -20 -88 -45 -111 -89 -18 -33 -23 -37 -50 -32 -16 3 -107 10 -201 17 -154 11 -180 11 -260 -5 -53 -10 -121 -32 -167 -54 l-77 -38 -15 22 c-19 29 -71 60 -126 75 -132 35 -246 -54 -210 -164 15 -44 54 -80 119 -107 28 -12 52 -26 52 -30 0 -5 -7 -37 -17 -72 -10 -40 -16 -102 -16 -173 0 -97 5 -129 41 -266 50 -189 62 -269 39 -269 -20 0 -30 -29 -16 -46 14 -17 -19 -76 -81 -147 -45 -51 -286 -269 -337 -305 -39 -28 -132 -63 -255 -97 -112 -32 -169 -63 -203 -113 -40 -58 -32 -65 35 -31 33 17 75 33 94 36 50 8 164 -14 293 -58 63 -21 151 -43 195 -50 93 -13 231 -7 300 14 l46 15 34 -35 c18 -19 76 -55 128 -81 52 -25 96 -46 98 -48 2 -1 -2 -20 -8 -42 -15 -48 -1 -82 34 -82 28 0 39 13 56 63 11 35 15 38 39 33 14 -3 78 -9 141 -12 121 -7 264 11 336 41 32 13 35 13 41 -3 3 -9 15 -30 26 -45 40 -59 97 -8 76 68 -8 28 -8 40 0 43 29 10 136 104 180 160 50 62 113 179 126 235 7 25 10 27 41 21 30 -5 35 -3 46 21 11 24 10 29 -10 45 -12 10 -27 20 -34 22 -7 3 0 33 22 88 36 95 53 218 35 253 -8 16 -8 57 0 150 10 127 10 127 41 146 46 28 102 98 124 158 20 55 26 161 11 213 l-7 25 -12 -22 c-14 -26 -44 -30 -62 -8 -26 31 16 69 51 46 28 -17 24 -6 -21 58 -71 101 -150 145 -261 146 -68 0 -79 3 -115 31 -30 24 -87 60 -112 70 -2 1 6 26 18 55 32 86 25 130 -27 157 -28 15 -59 14 -107 -3z m114 -25 c24 -24 25 -47 3 -117 -13 -40 -21 -53 -33 -49 -8 2 -48 16 -88 30 -41 14 -80 26 -88 26 -42 0 18 83 81 111 53 25 100 24 125 -1z m-1085 -114 c55 -25 105 -76 105 -106 0 -10 5 -22 10 -25 6 -4 10 6 10 23 0 26 7 32 63 60 118 57 169 65 387 59 301 -9 470 -56 614 -172 l30 -24 -31 -29 c-64 -59 -64 -152 -2 -330 66 -186 114 -251 195 -260 l47 -5 -6 -130 c-4 -86 -11 -135 -19 -143 -21 -20 -433 -39 -843 -39 -357 0 -373 1 -450 23 -43 13 -85 28 -92 34 -7 6 -13 31 -13 58 0 26 -20 127 -45 224 -51 201 -58 309 -29 437 14 64 17 69 42 69 20 0 2 13 -68 48 -133 66 -171 130 -118 197 45 58 130 70 213 31z m1434 -221 c41 -20 93 -68 129 -116 10 -13 7 -16 -19 -16 -68 0 -98 -84 -45 -130 33 -28 56 -29 90 -2 l26 20 0 -43 c0 -133 -103 -278 -197 -278 -98 0 -165 81 -226 275 -44 142 -44 220 1 274 43 54 153 61 241 16z m-1356 -895 c34 -11 111 -28 171 -38 l110 -18 -65 -43 c-57 -40 -168 -129 -194 -157 -5 -6 -38 -32 -72 -59 -35 -26 -71 -62 -82 -80 -17 -30 -18 -38 -6 -86 15 -63 50 -153 70 -183 8 -11 15 -23 15 -27 0 -9 -101 -22 -197 -24 -104 -3 -182 12 -353 68 -127 41 -141 44 -230 41 -110 -4 -104 5 30 37 108 26 250 80 289 110 52 41 228 206 303 284 47 49 89 103 105 137 16 32 32 58 36 58 4 0 36 -9 70 -20z m1293 -38 c27 -18 31 -47 17 -127 -48 -286 -148 -476 -307 -590 -127 -91 -241 -125 -436 -132 -141 -4 -227 5 -223 25 2 7 -1 12 -6 12 -4 0 -23 -29 -41 -65 -18 -36 -34 -65 -36 -65 -1 0 -9 3 -18 6 -23 9 -20 43 9 99 13 27 22 51 19 54 -3 3 -10 -2 -15 -11 -9 -15 -13 -16 -50 -3 -128 45 -229 130 -274 228 -24 52 -55 158 -55 187 0 8 35 45 77 80 43 36 111 94 153 128 41 35 109 86 150 113 l74 49 271 1 c148 1 340 5 425 9 237 10 254 10 266 2z m39 -296 c25 -18 13 -46 -21 -46 -20 0 -25 4 -20 16 3 9 6 22 6 30 0 18 11 18 35 0z m-380 -532 c5 -28 2 -41 -10 -53 -15 -15 -18 -14 -41 12 -30 35 -30 51 -1 65 36 18 44 14 52 -24z"/>
<path d="M2186 2514 c-27 -28 -37 -56 -12 -35 7 6 22 8 32 5 16 -6 17 -4 7 6 -10 11 -9 17 4 32 25 28 -1 21 -31 -8z"/>
<path d="M1073 2378 c43 -11 46 -21 15 -42 -12 -9 -19 -19 -15 -22 4 -4 18 3 32 16 25 23 25 23 46 4 16 -14 21 -15 17 -4 -8 25 -69 60 -102 59 -31 -1 -31 -1 7 -11z"/>
<path d="M1633 2305 c-114 -32 -190 -91 -240 -187 -22 -44 -27 -66 -27 -133 -1 -69 3 -89 30 -146 40 -83 114 -158 200 -200 90 -45 200 -52 289 -18 80 30 154 103 185 184 32 82 32 197 1 277 -66 170 -266 272 -438 223z m249 -48 c170 -83 240 -292 157 -464 -27 -55 -88 -116 -147 -145 -71 -35 -196 -33 -275 4 -126 59 -216 181 -225 307 -10 146 70 261 219 315 70 26 201 17 271 -17z"/>
<path d="M1584 2046 c-46 -46 -46 -86 0 -132 25 -24 43 -34 66 -34 44 0 100 56 100 99 0 32 -14 42 -24 16 -3 -9 -18 -15 -36 -15 -23 0 -33 6 -42 25 -10 22 -8 29 12 50 l23 25 -32 0 c-24 0 -42 -9 -67 -34z m85 -120 c-25 -28 -90 31 -76 69 5 12 14 8 45 -22 22 -21 36 -42 31 -47z"/>
<path d="M2220 1815 c-14 -7 -38 -20 -55 -28 -40 -19 -68 -51 -63 -74 2 -10 18 -27 36 -38 29 -18 32 -24 30 -60 l-3 -40 50 0 50 0 3 36 c3 31 7 38 30 42 36 7 72 42 72 70 0 12 -17 41 -39 65 -42 45 -68 52 -111 27z m-10 -60 c31 -18 92 -19 108 -3 10 10 15 10 22 -2 15 -23 12 -37 -11 -59 -26 -24 -75 -34 -115 -22 -74 21 -91 46 -57 83 19 21 21 21 53 3z m46 -116 c2 -4 0 -19 -6 -33 -7 -18 -17 -26 -34 -26 -30 0 -40 14 -32 46 5 20 12 24 37 22 17 -1 32 -6 35 -9z"/>
<path d="M1640 1155 c0 -13 33 -71 52 -92 24 -26 20 -57 -9 -61 -23 -3 -62 40 -84 93 -10 25 -13 27 -17 11 -5 -23 45 -96 81 -116 20 -11 31 -12 44 -4 29 18 26 40 -13 104 -35 57 -54 80 -54 65z"/>
<path d="M2245 1134 c-10 -8 -37 -14 -60 -14 -23 0 -63 -7 -88 -16 -38 -13 -51 -14 -62 -4 -26 22 -41 -4 -41 -66 l1 -56 65 -43 65 -42 35 30 c113 96 117 102 123 160 6 61 -5 75 -38 51z m-127 -59 c-2 -5 -11 -10 -20 -10 -10 -1 -21 -4 -24 -7 -8 -8 -8 -67 -1 -75 9 -8 37 17 37 33 0 8 5 14 10 14 16 0 12 -76 -5 -90 -21 -17 -31 -5 -14 16 12 15 11 16 -9 10 -54 -18 -74 65 -25 104 26 21 57 24 51 5z m107 -25 c9 -29 -20 -70 -50 -70 -31 0 -42 33 -21 65 21 31 62 34 71 5z"/>
<path d="M2170 1025 c0 -16 6 -25 15 -25 9 0 15 9 15 25 0 16 -6 25 -15 25 -9 0 -15 -9 -15 -25z"/>
<path d="M1163 2580 c27 -10 63 -30 82 -44 19 -14 36 -22 39 -17 6 10 -128 81 -153 81 -9 -1 6 -9 32 -20z"/>
<path d="M2550 2379 c14 -6 47 -21 74 -33 59 -25 141 -102 179 -166 39 -66 61 -163 54 -236 -10 -103 -41 -170 -116 -244 l-65 -65 -6 -90 c-3 -49 -2 -106 3 -125 14 -52 1 -176 -26 -257 -21 -62 -23 -73 -10 -86 43 -43 13 -151 -45 -163 -22 -5 -34 -20 -69 -92 -48 -99 -127 -201 -201 -258 -47 -35 -51 -43 -52 -80 0 -48 -33 -103 -73 -122 -35 -17 -79 -4 -118 34 l-27 26 -78 -18 c-60 -14 -116 -18 -230 -18 l-150 1 -17 -29 c-23 -41 -79 -62 -123 -48 -40 13 -74 53 -74 86 0 13 -4 24 -9 24 -11 0 0 -44 18 -79 18 -33 68 -54 115 -48 31 4 49 15 74 44 l33 38 132 -3 c99 -2 154 2 220 16 86 18 88 18 105 -1 25 -28 67 -47 103 -47 23 0 41 10 70 39 34 34 39 44 40 87 0 47 3 51 49 86 71 54 155 160 203 256 33 67 47 86 73 97 18 7 40 25 50 39 21 33 22 98 1 130 -15 23 -15 28 6 83 19 51 22 79 22 223 2 263 1 252 36 275 45 30 105 118 130 192 32 97 25 217 -19 305 -56 114 -174 213 -277 233 -29 5 -29 5 -5 -6z"/>
<path d="M830 2352 c0 -22 37 -86 67 -113 31 -30 92 -63 100 -55 3 2 -12 14 -34 24 -48 25 -97 77 -117 122 -8 19 -15 29 -16 22z"/>
<path d="M971 1879 c-2 -27 21 -129 29 -129 4 0 1 28 -7 63 -16 73 -21 88 -22 66z"/>
<path d="M1003 1728 c3 -9 9 -33 13 -52 3 -20 10 -36 14 -36 9 0 -16 89 -27 99 -3 3 -3 -2 0 -11z"/>
<path d="M1035 1615 c3 -10 9 -39 12 -62 3 -24 9 -46 13 -48 10 -6 -9 96 -22 115 -7 12 -8 11 -3 -5z"/>
<path d="M134 664 c18 -70 64 -86 144 -48 31 14 70 30 85 34 40 12 133 -5 272 -50 67 -21 150 -44 185 -49 84 -14 221 -14 294 0 57 10 60 10 100 -19 52 -38 166 -95 166 -84 0 5 -23 19 -52 33 -28 13 -75 40 -103 60 l-51 36 -85 -15 c-120 -21 -268 -6 -414 41 -133 44 -228 67 -275 67 -19 0 -64 -14 -98 -30 -35 -17 -74 -30 -86 -30 -30 0 -66 27 -66 50 0 10 -5 22 -11 26 -9 5 -10 -1 -5 -22z"/>
</g>
</svg>